# xmcd
# 
# Track frame offsets:
#     150
#     19115
#     35965
#     55695
#     77928
#     100013
#     118645
#     138843
#     158420
#     181635
# 
# Disc length: 2694
# 
# Revision: 2
# Processed by: cddbd v1.5.2PL0 Copyright (c) Steve Scherf et al.
# Submitted via: fre:ac v1.0.31
# 
DISCID=720a840a
DTITLE=Various Artist - Tình Khúc Đỗ Lễ - Ngọc Lan - Lưu Hồng - Như Mai - Vũ Khanh - Hải Lý - Tuấn Anh - Phượng Hoàng Productions
DYEAR=1990
DGENRE=Pop
TTITLE0=Ngọc Lan - Tình Buồn - Đỗ Lễ
TTITLE1=Lưu Hồng - Dang Dỡ - Đỗ Lễ
TTITLE2=Ngọc Lan - Sang Ngang - Đỗ Lễ
TTITLE3=Tuấn Anh - Rồi Em Cũng Bỏ Tôi Đi - Đỗ Lễ
TTITLE4=Vũ Khanh - Hải Lý - Mùa Thương Cũ - Đỗ Lễ
TTITLE5=Ngọc Lan - Tan Vỡ - Đỗ Lễ
TTITLE6=Hải Lý - Tình Phụ - Đỗ Lễ
TTITLE7=Ngọc Lan - Vũ Khanh - Chuyện Buồn Tình Yêu - Đỗ Lễ
TTITLE8=Như Mai - Tuổi Mây Hồng - Đỗ Lễ
TTITLE9=Lưu Hồng - Tuyệt Tình - Đỗ Lễ
EXTD=
EXTT0=
EXTT1=
EXTT2=
EXTT3=
EXTT4=
EXTT5=
EXTT6=
EXTT7=
EXTT8=
EXTT9=
PLAYORDER=
